# xmcd
#
# Track frame offsets:
#        150
#        26837
#        52422
#        79106
#
# Disc length: 1388 seconds
#
# Revision: 1
# Processed by: cddbd v1.5.1PL2 Copyright (c) Steve Scherf et al.
# Submitted via: ExactAudioCopy v0.95b2
#
DISCID=32056a04
DTITLE=m-flo loves melody. and yamamoto ryohei - Miss You
DYEAR=2003
DGENRE=JPop
TTITLE0=Miss You
TTITLE1=Astrosexy
TTITLE2=Miss You [Instrumental]
TTITLE3=Astrosexy [Instrumental]
EXTD=
EXTT0=
EXTT1=
EXTT2=
EXTT3=
PLAYORDER=
